PathFileType	4	(X/Y/Z)	/Users/niels/Desktop/University/Third Semester/Perception and Action/Exam/Gymnastics Motion Tracking/Code for Gym Tracking/Scripts/Analyzed Data/kraft_bad_id1_1_normal_speed_Sports2D/kraft_bad_id1_1_normal_speed_Sports2D_px_person00.trc
DataRate	CameraRate	NumFrames	NumMarkers	Units	OrigDataRate	OrigDataStartFrame	OrigNumFrames
49.404761904761905	49.404761904761905	8	22	m	49.404761904761905	42	84
Frame#	Time	Hip			RHip			RKnee			RAnkle			RBigToe			RSmallToe			RHeel			LHip			LKnee			LAnkle			LBigToe			LSmallToe			LHeel			Neck			Head			Nose			RShoulder			RElbow			RWrist			LShoulder			LElbow			LWrist		
		X1	Y1	Z1	X2	Y2	Z2	X3	Y3	Z3	X4	Y4	Z4	X5	Y5	Z5	X6	Y6	Z6	X7	Y7	Z7	X8	Y8	Z8	X9	Y9	Z9	X10	Y10	Z10	X11	Y11	Z11	X12	Y12	Z12	X13	Y13	Z13	X14	Y14	Z14	X15	Y15	Z15	X16	Y16	Z16	X17	Y17	Z17	X18	Y18	Z18	X19	Y19	Z19	X20	Y20	Z20	X21	Y21	Z21	X22	Y22	Z22
42	0.8501204819277108	1.00651205610666	-0.4750235485878054	0.0	1.0074946339761075	-0.481392828809504	0.0	0.861720061447905	-0.5444258029585985	0.0	0.7784402358719839	-0.468201730988394	0.0	0.7250105488355337	-0.4800849484117781	0.0	0.72042758610024	-0.4768718537634429	0.0	0.7668829451914491	-0.4584805819759771	0.0	1.0085893111379114	-0.46697042783362647	0.0	0.8973339966758561	-0.3381146379372538	0.0	0.9496700397119734	-0.18923502931269362	0.0	0.9152889877124996	-0.14614822616884268	0.0	0.9256387335097532	-0.14835022567429773	0.0	0.9507456461056262	-0.17829878416642936	0.0	1.0942145324211487	-0.6540831487659285	0.0	1.1686131641340796	-0.7195039986315066	0.0	1.110781063714443	-0.7112309456410936	0.0	1.0868197957821495	-0.6552520405995802	0.0	1.0444827167900683	-0.7373166568650222	0.0	1.0753958049412502	-0.8207215976610761	0.0	1.089126213771875	-0.6454762141295874	0.0	1.0432853921783274	-0.7191413637874983	0.0	1.0669182498216023	-0.7871825862731437	0.0
43	0.8703614457831325	1.040059602808959	-0.47562177704028763	0.0	1.0406729339613878	-0.48065295935389046	0.0	0.8930094108319481	-0.5175718093038637	0.0	0.8338707284409985	-0.41928790919249964	0.0	0.7811585836765379	-0.41740573960663074	0.0	0.7759238541836087	-0.415550791792354	0.0	0.8260961649943857	-0.408548387940003	0.0	1.043312033296572	-0.4684700375126062	0.0	0.942247413108227	-0.3313973187928051	0.0	1.0092543511531131	-0.18582275348968635	0.0	0.9778367414722446	-0.13888693972701438	0.0	0.9897796872437606	-0.14296334978609648	0.0	1.0125524246200948	-0.17619515915318873	0.0	1.1110323354188938	-0.6646673254770907	0.0	1.1806515643515343	-0.7348625738773266	0.0	1.1223702292510775	-0.7219458097678935	0.0	1.1049122521133778	-0.6631916213640964	0.0	1.050310128344041	-0.7362570896165542	0.0	1.0753550753862982	-0.820889367110825	0.0	1.104846636105443	-0.6556091962380515	0.0	1.0479183658264517	-0.7205908021299651	0.0	1.0666409835146773	-0.7876277045136639	0.0
44	0.8906024096385542	1.0725865737696123	-0.47664769453001016	0.0	1.072381295127502	-0.4801439936949193	0.0	0.9268782678036255	-0.48824580759912756	0.0	0.8951016214111182	-0.37368336921277634	0.0	0.8462782106480456	-0.3573909604140642	0.0	0.8412096888757273	-0.3570611924297242	0.0	0.8914522060054081	-0.3622151382332504	0.0	1.0769083001912148	-0.4704895132924722	0.0	0.9883784463780892	-0.3272670258866784	0.0	1.0682106304257988	-0.18710759061753743	0.0	1.0389949157981289	-0.13667416430826201	0.0	1.0525937369595872	-0.14251320769793877	0.0	1.0737643107198716	-0.1789664301593853	0.0	1.1269245056750963	-0.6745917944093558	0.0	1.1914430991903364	-0.7490762237853189	0.0	1.133108535682795	-0.7317621437406131	0.0	1.1220304708535798	-0.6702638621188982	0.0	1.0565120935538	-0.7343799150462967	0.0	1.0753478213297143	-0.8200487655604083	0.0	1.1200313197711183	-0.6647166459982592	0.0	1.0529740084446986	-0.7208965615426675	0.0	1.0666228489502527	-0.7877534714402297	0.0
45	0.9108433734939758	1.1037697901793724	-0.4779891495212882	0.0	1.1023635532201195	-0.47978173464852764	0.0	0.9638914236298493	-0.45770989354377745	0.0	0.9609328494823407	-0.3337384980331891	0.0	0.918547683597042	-0.30327197356104774	0.0	0.9142807504113837	-0.3045152409565819	0.0	0.961583429998002	-0.3219579640230189	0.0	1.1090398836869009	-0.4729589806739855	0.0	1.035325869998686	-0.32543339690554557	0.0	1.1264601396498	-0.1925679626563586	0.0	1.0986660884972714	-0.1385633040678251	0.0	1.1138281453218903	-0.14616363891138515	0.0	1.1342596070536197	-0.18600259910948294	0.0	1.1420046311654237	-0.6834456949158143	0.0	1.2012801793107377	-0.7617244128953129	0.0	1.1432484933113092	-0.7404208953054908	0.0	1.13806780044058	-0.6762193560015674	0.0	1.0633623635045695	-0.7321209754946926	0.0	1.0757066180731432	-0.8185375718242383	0.0	1.1349200389327696	-0.6724537217037281	0.0	1.0588973716311982	-0.7203820973128888	0.0	1.0670642198446982	-0.787888978761967	0.0
46	0.9310843373493976	1.133455620286894	-0.47951414680787674	0.0	1.1306185305423935	-0.4794959510391934	0.0	1.004539147771237	-0.42748779219951855	0.0	1.0300501258046464	-0.30134816739000336	0.0	0.9958307326497758	-0.2577473034279112	0.0	0.9929322440898439	-0.260557049880875	0.0	1.0349933398349447	-0.2898351509398038	0.0	1.1395311446941356	-0.47577664219197124	0.0	1.082737672463438	-0.32571933976351153	0.0	1.1839222352752008	-0.2020996851530394	0.0	1.1572249273578257	-0.14419228523216024	0.0	1.173558988112353	-0.15362613950304654	0.0	1.1938645817408815	-0.197121972896094	0.0	1.1563525865501358	-0.690830145661593	0.0	1.210494678951799	-0.7724208318625162	0.0	1.1530652743220864	-0.7476653977714346	0.0	1.153000075499705	-0.6808650168089833	0.0	1.071011499742311	-0.7298134896535688	0.0	1.0766235478168773	-0.8166019879411498	0.0	1.149612084391592	-0.678494496595203	0.0	1.0658930983729031	-0.7193272787402937	0.0	1.0679612334231368	-0.7881363627069092	0.0
47	0.9513253012048192	1.1618113138267445	-0.4810573698557472	0.0	1.1575174942519433	-0.47919134012662196	0.0	1.049213004954963	-0.39911892177033365	0.0	1.1013701096982447	-0.2777821054725743	0.0	1.0763152350866216	-0.22271207418188932	0.0	1.0752373194101301	-0.22703992505948858	0.0	1.1104087141015693	-0.26726418535025004	0.0	1.1685387663355662	-0.47876815841438997	0.0	1.1304858192967056	-0.3280213410139157	0.0	1.2406071932852374	-0.2159024368138834	0.0	1.2153038045073192	-0.15374334425400904	0.0	1.2321482996629143	-0.16506872733740727	0.0	1.2524667106712482	-0.2124893398625384	0.0	1.1700903173756134	-0.6964401853954125	0.0	1.2193933078342936	-0.7809336047723647	0.0	1.1628364656130197	-0.7532694475142773	0.0	1.1669773448749219	-0.6840933518289851	0.0	1.079495789163938	-0.7276342144048038	0.0	1.078161281642336	-0.8143727091687233	0.0	1.1642040582967015	-0.6825923200948532	0.0	1.0740179513892518	-0.7179360938270968	0.0	1.0692648202408845	-0.7883852695444017	0.0
48	0.9715662650602409	1.1892548332087767	-0.48242721236463326	0.0	1.183691669147781	-0.47874075913278974	0.0	1.0980153359641118	-0.37405202876742655	0.0	1.1739380606736805	-0.2637186392752156	0.0	1.1584879093615528	-0.19933074787281352	0.0	1.1594647522188655	-0.20505311442426385	0.0	1.1866524362890365	-0.2550036963782795	0.0	1.1964837891591074	-0.48168890910032136	0.0	1.1785595279275474	-0.3323086954619183	0.0	1.2964585677671008	-0.23428790542412758	0.0	1.2734456526355962	-0.1677749861023142	0.0	1.2900123432272823	-0.18096005993461337	0.0	1.3098958370022942	-0.23243589693447936	0.0	1.183370254502419	-0.7000700209382985	0.0	1.228129569172617	-0.7871936614581363	0.0	1.1727198320796095	-0.7570297055983016	0.0	1.180241967644521	-0.6858413149960236	0.0	1.0887365439430328	-0.725592654920973	0.0	1.0802854363776848	-0.8118628695511602	0.0	1.1788102858287566	-0.684622861080889	0.0	1.0832584258568365	-0.7163346082472642	0.0	1.0710529809638614	-0.7884284093834331	0.0
49	0.9918072289156626	1.2162688664835486	-0.48343334577294794	0.0	1.2098244631462822	-0.47801952919212143	0.0	1.1505262111363137	-0.3536332349505291	0.0	1.246590657068781	-0.25939002866766986	0.0	1.2406891474632382	-0.18822944493695162	0.0	1.2437054228053213	-0.19514227850903462	0.0	1.2623035202952118	-0.25327161843346413	0.0	1.2238416635327696	-0.4842692210164626	0.0	1.226802501832987	-0.3386621511503045	0.0	1.351070255385011	-0.25747466416052783	0.0	1.3317622751650668	-0.18699155991786556	0.0	1.347282253463321	-0.20188781498478242	0.0	1.365683493334373	-0.257233708032319	0.0	1.1963042831635158	-0.7015803743678818	0.0	1.2366138849932136	-0.7912205546184773	0.0	1.1826649621607204	-0.7587602080004903	0.0	1.1929976509349673	-0.6860474354604406	0.0	1.0985465647519714	-0.7235354951396693	0.0	1.0829258896522036	-0.8089815918206321	0.0	1.1934556536110452	-0.684603085572113	0.0	1.093547528095459	-0.7145707255489353	0.0	1.0735904572386954	-0.788051155317917	0.0
